<svg width="34" height="37" viewBox="0 0 34 37" fill="none" xmlns="http://www.w3.org/2000/svg">
<g filter="url(#filter0_d)">
<path d="M28.5 3.5H5.5C4.94687 3.5 4.5 3.94687 4.5 4.5V27.5C4.5 28.0531 4.94687 28.5 5.5 28.5H28.5C29.0531 28.5 29.5 28.0531 29.5 27.5V4.5C29.5 3.94687 29.0531 3.5 28.5 3.5ZM25.6125 10.7969H23.6156C22.05 10.7969 21.7469 11.5406 21.7469 12.6344V15.0437H25.4844L24.9969 18.8156H21.7469V28.5H17.85V18.8188H14.5906V15.0437H17.85V12.2625C17.85 9.03437 19.8219 7.275 22.7031 7.275C24.0844 7.275 25.2688 7.37813 25.6156 7.425V10.7969H25.6125Z" fill="white"/>
</g>
<defs>
<filter id="filter0_d" x="-3" y="0" width="40" height="40" filterUnits="userSpaceOnUse" color-interpolation-filters="sRGB">
<feFlood flood-opacity="0" result="BackgroundImageFix"/>
<feColorMatrix in="SourceAlpha" type="matrix" values="0 0 0 0 0 0 0 0 0 0 0 0 0 0 0 0 0 0 127 0"/>
<feOffset dy="4"/>
<feGaussianBlur stdDeviation="2"/>
<feColorMatrix type="matrix" values="0 0 0 0 0 0 0 0 0 0 0 0 0 0 0 0 0 0 0.25 0"/>
<feBlend mode="normal" in2="BackgroundImageFix" result="effect1_dropShadow"/>
<feBlend mode="normal" in="SourceGraphic" in2="effect1_dropShadow" result="shape"/>
</filter>
</defs>
</svg>
