<svg width="36" height="36" viewBox="0 0 36 36" fill="none" xmlns="http://www.w3.org/2000/svg">
<path d="M17.9844 0.979005C8.32422 0.975099 0.5 8.79541 0.5 18.4478C0.5 26.0806 5.39453 32.5689 12.2109 34.9517C13.1289 35.1821 12.9883 34.5298 12.9883 34.0845V31.0571C7.6875 31.6782 7.47266 28.1704 7.11719 27.5845C6.39844 26.3579 4.69922 26.0454 5.20703 25.4595C6.41406 24.8384 7.64453 25.6157 9.07031 27.7212C10.1016 29.2485 12.1133 28.9907 13.1328 28.7368C13.3555 27.8189 13.832 26.9985 14.4883 26.3618C8.99609 25.3774 6.70703 22.0259 6.70703 18.0415C6.70703 16.1079 7.34375 14.3306 8.59375 12.897C7.79688 10.5337 8.66797 8.51026 8.78516 8.20947C11.0547 8.00635 13.4141 9.83448 13.5977 9.97901C14.8867 9.63135 16.3594 9.44776 18.0078 9.44776C19.6641 9.44776 21.1406 9.63916 22.4414 9.99072C22.8828 9.65479 25.0703 8.08447 27.1797 8.27588C27.293 8.57666 28.1445 10.5532 27.3945 12.8853C28.6602 14.3228 29.3047 16.1157 29.3047 18.0532C29.3047 22.0454 27 25.4009 21.4922 26.3696C21.9639 26.8336 22.3385 27.3869 22.5941 27.9972C22.8496 28.6075 22.981 29.2627 22.9805 29.9243V34.3189C23.0117 34.6704 22.9805 35.0181 23.5664 35.0181C30.4844 32.686 35.4648 26.1509 35.4648 18.4517C35.4648 8.79541 27.6367 0.979005 17.9844 0.979005Z" fill="#171F3F"/>
</svg>
